# xmcd
#
# Track frame offsets: 
#        150
#        19577
#        38240
#        58780
#
# Disc length: 1042 seconds
#
# Revision: 0
# Processed by: cddbd v1.5.2PL0 Copyright (c) Steve Scherf et al.
# Submitted via: ExactAudioCopy v0.99pb3
#
DISCID=2b041004
DTITLE=East Village - Silver Train
DYEAR=1993
DGENRE=Summershine
TTITLE0=Silver Train
TTITLE1=Circles (edit)
TTITLE2=Black Autumn
TTITLE3=Motorcycle Theme
EXTD=
EXTT0=
EXTT1=
EXTT2=
EXTT3=
PLAYORDER=
